<svg xmlns="http://www.w3.org/2000/svg" width="1650" height="909" viewBox="0 0 1849 909">
  <text id="CONTACT_ME:" data-name="CONTACT ME:" transform="translate(850 179)" fill="#cba8ea" stroke="rgba(143,142,139,0.5)" stroke-width="5" font-size="125" font-family="Playbill" letter-spacing="0.035em"><tspan x="-238.397" y="104">CONTACT ME:</tspan></text>
  <g id="Path_19" data-name="Path 19" transform="translate(139 131)" fill="rgba(255,255,255,0)">
    <path d="M 1579 632 L 10 632 L 10 10 L 1579 10 L 1579 632 Z" stroke="none"/>
    <path d="M 20 20 L 20 622 L 1569 622 L 1569 20 L 20 20 M 0 0 L 1589 0 L 1589 642 L 0 642 L 0 0 Z" stroke="none" fill="#7d53c5"/>
  </g>
  <text id="Phone:_817-907-2023_Email:_chandlercoleman47_gmail.com_Instagram:_coleman.chandler" data-name="Phone: 817-907-2023
Email: chandlercoleman47@gmail.com
Instagram: coleman.chandler" transform="translate(875 344.5)" fill="#050108" stroke="rgba(143,142,139,0.5)" stroke-width="5" font-size="80" font-family="PoorRichard-Regular, Poor Richard" letter-spacing="0.035em"><tspan x="-361.43" y="73">Phone: 817-907-2023</tspan><tspan x="-632.587" y="163">Email: chandlercoleman47@gmail.com</tspan><tspan x="-463.587" y="253">Instagram: coleman.chandler</tspan></text>
  <g id="Rectangle_22" data-name="Rectangle 22" transform="translate(94 92)" fill="rgba(255,255,255,0)" stroke="#c273ef" stroke-width="20">
    <rect width="1660" height="718" stroke="none"/>
    <rect x="10" y="10" width="1640" height="698" fill="none"/>
  </g>
  <g id="Rectangle_23" data-name="Rectangle 23" transform="translate(52 56)" fill="rgba(255,255,255,0)" stroke="#d398e4" stroke-width="20">
    <rect width="1741" height="790" stroke="none"/>
    <rect x="10" y="10" width="1721" height="770" fill="none"/>
  </g>
  <g id="Rectangle_24" data-name="Rectangle 24" fill="rgba(255,255,255,0)" stroke="#b787c3" stroke-width="20">
    <rect width="1849" height="909" stroke="none"/>
    <rect x="10" y="10" width="1829" height="889" fill="none"/>
  </g>
</svg>
